<svg xmlns="http://www.w3.org/2000/svg" xmlns:xlink="http://www.w3.org/1999/xlink" xmlns:a="http://ns.adobe.com/AdobeSVGViewerExtensions/3.0/" version="1.1" baseProfile="basic" x="0px" y="0px" width="647px" height="545px" viewBox="-0.002 0 647 545" enable-background="new -0.002 0 647 545" xml:space="preserve">
<defs>
</defs>













<path d="M360.396,134.686c13.932-8.01,28.75-15.58,44.932-17.431c10.26-1.38,21.819,1.65,28.229,10.25  c5.229,5.721,5.812,13.811,6.521,21.15c0.92,7.37,0.51,14.84,1.648,22.2c-2.869,0.55-5.71,1.37-8.63,1.6  c-1.5-0.71-2.989-1.399-4.311-2.39c-0.51-2-0.82-4.04-1.13-6.08c-11.79,2.19-24.221,4.63-33.87,12.229  c-4.851,3.7-7.722,9.421-8.722,15.36c-0.01,1.79-0.049,3.59,0.08,5.4c1.631,1.358,3.972,1,5.939,1.488  c-2.75,5.052-5.21,10.342-5.96,16.102c0,1,0,3,0,4c4.61-0.72,8.53-3.36,12.841-4.95c-0.189,1.03-0.561,3.09-0.74,4.12  c-0.09,1.4-0.17,2.8-0.238,4.2c0.898,2.22,1.988,4.35,3.25,6.38c6.209-1.352,11.578-4.94,17.51-7.062  c-0.17,0.86-0.51,2.58-0.682,3.44c0.24,0.68,0.711,2.03,0.939,2.7c6.381-1.562,12.44-4.3,17.812-8.08  c7.011-4.5,13.819-10.41,22.351-11.521c4.761,3,6.979,9.2,12.011,12.092c8.181,4.938,17.062,8.578,25.96,12  c18.279,6.79,37.09,12.148,56.17,16.158c9.92,2.17,20.029,3.65,29.649,6.99c5.38,1.95,10.801,5.24,13.181,10.69  c4.479,10.71,4.42,23.38-0.858,33.79c-4.729,8.721-13.172,15.84-23.052,17.738c-39.561,9.15-79.761,15.302-119.979,20.65  c-11.95,1.319-23.87,2.76-35.852,3.771c-27.619,2.471-55.351,3.859-83.101,3.521c-9.09,0.13-18.26-0.08-27.14-2.189  c-3.479-1.319-7.051-2.801-9.561-5.659c-3.439-3.341-4.399-8.2-5.28-12.71c-1.47-8.279-3.439-16.521-3.72-24.961  c-0.31-7.341,2.181-14.352,3.57-21.471c4.31-21.479,7.689-43.17,13.18-64.41c0.729-2.6,0.319-5.35,1.04-7.948  c2.891-12.08,6.3-24.021,9.42-36.041c0.37-1.03,0.51-2.271,1.38-3C329.578,155.186,344.457,144.096,360.396,134.686z"/>




<path fill="#070406" d="M395.857,184.926c9.181-7.9,20.74-11.9,32.108-15.461l0.82,0.601c1.319,0.99,2.811,1.68,4.311,2.39  c-12.631,4.99-24.801,11.07-37.261,16.45C395.816,187.566,395.828,186.255,395.857,184.926z"/>

<path d="M232.357,199.306c23.921-4.82,43.23-22.87,67.801-25.4c-2.841,11.61-6.28,23.07-9.07,34.7c-0.84,3.64-0.7,7.45-1.83,11.03  c-6.39,24.81-9.6,50.3-15.55,75.209c-1.61,7.479-0.71,15.21,0.71,22.648c0.71,4.971,1.76,9.93,3.7,14.59  c-8.19,0.352-16.23,3.142-23.2,7.392c-7.95,4.681-13.92,12.898-23.51,14.438c-12.011,0.87-22.33-6.85-34.08-7.739  c-4.261-0.021-8.23,2.109-12.521,1.939c0.78-0.58,1.561-1.141,2.351-1.7c6.01-3.148,11.989-6.79,18.84-7.771  c8.359-0.949,16.77-1.54,25.069-2.92c4.54-0.819,8.721-2.96,12.181-5.989c4.56-3.841,12.05-4.67,14.13-10.99  c0.439-4.5-0.5-11.76-6.13-12.358c-4.8,0.688-8.75,3.898-12.45,6.811c-6.16,4.85-11.72,10.5-18.37,14.71  c-2.99,2.062-6.77,1.46-10.189,1.51c-5.061-0.08-9.87-1.989-14.891-2.37c-7.59,0.802-14.84,3.392-22.03,5.83  c-5.51,1.7-11.14,3.562-16.979,3.271c-7.93-0.229-15.49-3.119-22.5-6.649c4.82-0.16,9.69,0.271,14.48-0.521  c16.21-2.329,30.88-10.189,46.67-14.079c5.04-1.48,10.47,0.04,15.43-1.892c7.45-2.58,14.47-8.811,15.49-16.971  c0.51-3.16-0.74-6.1-2.21-8.79c-4.48-4.069-10.71-1.608-15.311,0.892c-13.28,7.521-24.189,18.521-37.37,26.188  c-3.569,2.03-7.649,3.229-11.779,3.062c-8.83-0.239-17.29-3.052-25.971-4.399c-8.01-1.49-16.18-1.2-24.279-0.88  c15.25-7.381,32.64-6.61,48.97-9.602c5.98-1.148,12.5-1.938,17.39-5.869c1.94-1.4,2.01-3.979,2.34-6.119  c-2.05-5.75-6.8-11.23-13.319-11.36c-10.11,0.312-18.51,6.71-26.64,12c-5.62,3.63-11.301,8.87-18.511,8.021  c-7.39-1-14.609-3.438-22.14-3.341l-0.65-0.43c-7.25-0.13-14.489,0.641-21.609,1.97c6-3.75,12.06-7.658,18.939-9.58  c8.13-2.369,16.74-1.42,25-2.92c13.771-3.898,22.65-16.188,34.96-22.738c3.681-1.79,7.86-3.28,11.99-2.37  c10.39,1.68,16.56,11.818,26.51,14.549c8.88,2.181,18.17-1.189,25.35-6.399c3.9-2.71,7.091-6.6,8.15-11.31  c-1.79-4.98-8.01-5.95-12.62-5.521c-7.729,0.69-12.27,7.771-18.79,11.04c-9.72-1.068-16.819-8.47-25.739-11.608  c-5.74-1.45-12.4-0.75-17.051,3.188c-7.409,5.96-15.18,11.94-24.47,14.63c-10.79,3.5-22.439,1.762-32.979-1.778  c11.02-1.12,22.2-3.472,31.75-9.341c11.71-6.979,20.42-19.381,34.46-22.039c7.81-2.03,15.529,1.47,22.239,5.17  c4.24,2.119,8.851,4.63,13.75,3.698c7.391-1.68,12.75-7.39,18.98-11.27c2.95-1.91,6.939-2.08,9.18-5.05  c1.88-1.562,1.25-4.13,1.41-6.261c-1.92-2.131-4.53-3.811-7.521-3.229c-9.72,0.84-15.47,10.311-24.52,12.89  c-3.44,0.74-6.71-0.84-9.92-1.84c-5.33-1.85-10.91-3.22-16.6-2.96c-5.21-0.26-10.16,1.54-15.221,2.431  c2.381-2.109,4.73-4.369,7.721-5.601c7.1-3.22,15.14-1.84,22.59-3.49c6.79-1.67,11.989-6.59,17.8-10.159  c6.07-4.131,12.92-7.149,20.149-8.54C224.267,200.005,228.387,200.226,232.357,199.306z"/>
<path fill="#110506" d="M402.477,198.946c8.41-5.98,16.5-12.79,26.149-16.72c-2.18,2.47-4.64,4.661-7.239,6.649  c-9.92,7.682-19.979,15.17-30.279,22.33C393.167,205.835,398.328,202.606,402.477,198.946z"/>
<path fill="#020203" d="M437.238,191.816c2.858-1,5.949-1.28,8.92-0.58c0.229,5.41-4.96,8.57-8.41,11.9  c-10.779,8.6-23.33,14.618-36.04,19.778c0.75-5.29,2.551-10.33,4.438-15.29C416.146,201.706,426.147,195.505,437.238,191.816z"/>

<path fill="#FEFEFD" d="M335.998,249.585c2.682-8.818,11.352-13.979,20.102-15.06c6.979-0.42,14.561,0.67,20.08,5.31  c3.789,2.91,5.238,7.67,6.549,12.062c2.142,0,4.291,0.05,6.439,0.2c0.359-5.65,5.2-9.92,10.221-11.762  c3.109-1.27,6.069,0.5,8.789,1.83c2.313-1.12,4.36-3.25,7.15-2.858c2.391-0.271,4.79,2.028,7.061,0.68  c3.369-1.87,7.729-2.45,11.102-0.26c3.528,1.648,4.729,5.66,5.648,9.13c7.08-2.47,15.569-2.99,21.819,1.85  c1.83-0.81,3.641-1.67,5.45-2.54c1.311-6.05,7.96-10.02,13.898-8.46c6.569,1.41,10.819,9.7,6.551,15.45  c1.021,3.5,1.301,7.24-0.04,10.71c2.641,2.62,5.511,5.79,4.891,9.83c0.49,5.47-3.561,9.82-7.739,12.699  c2.681,4.08,1.029,8.971,2.579,13.341c1.011,4.2,0.23,9.05-3.148,12.021c-4.642,4.961-12,4.229-18.131,5.352  c-1.119-0.721-2.238-1.44-3.358-2.131c-6.24,2.938-13.95,3.479-19.69-0.892c-2.26,2.142-4.979,3.682-7.96,4.563  c-3.05,4.188-7.068,8.38-12.39,9.31c-5.142,0.182-8.722-4.449-9.642-9.108c-5.16,1.62-10.479,0.891-15.5-0.841  c-4.391,3.521-10.488,3.939-15.699,2.189c-2.229,4.35-5.369,8.34-9.852,10.529c-9.56,4.779-22.699,3.181-29.56-5.489  c-5.729-7.07-4.79-18.13,1.96-24.221c-1-2.189-1.771-4.471-2.189-6.829c-1.351-0.4-2.688-0.812-4.021-1.2  c-1.28,0.67-2.562,1.34-3.83,2.021c-6.771,0.021-13.62-0.67-20.25,1.091c-1.87-1.341-4.101-2.359-5.33-4.38  c-1.16-2.07-0.92-4.5-0.979-6.771c-8.66-2.54-11.471-14.64-5.46-21.06c3.721-4.011,9.489-4.671,14.659-4.432  c3.271-1.59,7.141-3.72,10.64-1.29c4.392,1.921,3.771,7.37,6.021,10.852c3.342,2.229,7.08-0.91,10.682-0.92  C336.268,266.306,334.248,257.036,335.998,249.585z"/>






<path fill="#FCFDF8" d="M468.057,260.496c0.761-2.84,4.062-2.648,6.359-2.28c0.74,1.132,1.341,2.33,1.78,3.632  c-1.61,0.97-3.33,1.71-5.062,2.42C469.927,263.276,467.087,262.676,468.057,260.496z"/>




<path fill="#FCFBF7" d="M308.357,276.045c0.421-1.618,0.15-3.79,2.061-4.479c1.29-0.271,2.601-0.4,3.931-0.4  c0.09,1.95,0.22,3.91,0.399,5.88C312.738,276.066,310.507,276.195,308.357,276.045z"/>









<path fill="#FCF7F5" d="M449.118,296.416c2.55-0.58,6.29-1.198,6.479,2.48c-2.688,0.77-5.471,1.147-8.261,1.289  C447.908,298.916,448.507,297.666,449.118,296.416z"/>

<path d="M581.397,328.356c7.069-1.62,12.199-7.15,17.659-11.37c9.899,1.029,19.312,5.71,26.239,12.83  c6.062,6.76,10.24,15.619,9.852,24.85c0.568,12.261-5.909,24.052-15.341,31.58c-15.938,13.09-41.141,13.359-56.87-0.229  c-9.311-7.771-14.601-20.271-13.079-32.359c0.771-7.351,3.869-14.3,8.341-20.141C565.967,331.986,573.658,330.045,581.397,328.356z"/>

<path d="M520.887,340.456c1.271-0.148,2.591-0.62,3.892-0.3c7.771,6.319,13.318,15.439,14.56,25.46  c3.091,19.58-10.96,39.17-29.569,44.72c-12.561,4.08-26.988,2.4-37.96-5.08c-8.601-5.59-14.971-14.579-17.021-24.67  c-2.391-10.118-0.03-21.118,5.62-29.76c0.688-1.49,2.489-1.3,3.84-1.561C483.198,346.795,502.057,343.696,520.887,340.456z"/>
<path d="M259.097,372.656c4.101-12.75,14.13-23.87,27.03-27.99c1.77,5.49,6.1,9.9,11.63,11.63  c12.159,4.131,25.229,2.472,37.841,2.842c6.198,9.148,9.43,20.67,7.101,31.641c-3.28,19.46-21.7,34.779-41.37,34.76  c-14.311,0.7-28.66-6.47-36.7-18.33C257.717,397.255,255.838,384.286,259.097,372.656z"/>
<path d="M367.417,358.286c21.011-0.95,42.021-2.46,62.91-5c7.398,7.51,12.148,17.83,11.72,28.49  c-0.108,12.54-7.01,24.489-17.188,31.63c-9.579,6.84-22.069,9.54-33.602,7c-14.948-2.95-27.68-14.84-31.21-29.74  c-0.93-6.67-1.02-13.59,0.99-20.08C362.538,366.186,364.917,362.174,367.417,358.286z"/>




<path fill="#FDFCFB" d="M224.158,411.996c3.81-0.25,8.199,3.312,6.67,7.38c-1.34,1.592-2.99,2.892-4.561,4.25  c-2.33-2.25-4.59-4.568-6.72-7.01C221.078,415.066,222.618,413.526,224.158,411.996z"/>











<head xmlns=""/></svg>
